<mxfile host="app.diagrams.net" agent="Mozilla/5.0 (Windows NT 10.0; Win64; x64) AppleWebKit/537.36 (KHTML, like Gecko) Chrome/139.0.0.0 Safari/537.36" version="28.1.0">
  <diagram name="Page-1" id="SxB9uh9p98daKZW68kdo">
    <mxGraphModel dx="2395" dy="628" grid="1" gridSize="10" guides="1" tooltips="1" connect="1" arrows="1" fold="1" page="1" pageScale="1" pageWidth="1169" pageHeight="827" math="0" shadow="0">
      <root>
        <mxCell id="0" />
        <mxCell id="1" parent="0" />
        <mxCell id="2kVBc_zqeof4KfWbexQ--64" value="" style="group" vertex="1" connectable="0" parent="1">
          <mxGeometry x="-540" y="63" width="650" height="350" as="geometry" />
        </mxCell>
        <mxCell id="2kVBc_zqeof4KfWbexQ--80" value="" style="group" vertex="1" connectable="0" parent="2kVBc_zqeof4KfWbexQ--64">
          <mxGeometry width="650" height="280" as="geometry" />
        </mxCell>
        <mxCell id="2kVBc_zqeof4KfWbexQ--48" value="" style="shape=table;startSize=0;container=1;collapsible=0;childLayout=tableLayout;" vertex="1" parent="2kVBc_zqeof4KfWbexQ--80">
          <mxGeometry width="650" height="48.61111111111111" as="geometry" />
        </mxCell>
        <mxCell id="2kVBc_zqeof4KfWbexQ--49" value="" style="shape=tableRow;horizontal=0;startSize=0;swimlaneHead=0;swimlaneBody=0;strokeColor=inherit;top=0;left=0;bottom=0;right=0;collapsible=0;dropTarget=0;fillColor=none;points=[[0,0.5],[1,0.5]];portConstraint=eastwest;" vertex="1" parent="2kVBc_zqeof4KfWbexQ--48">
          <mxGeometry width="650" height="49" as="geometry" />
        </mxCell>
        <mxCell id="2kVBc_zqeof4KfWbexQ--50" value="ID:" style="shape=partialRectangle;html=1;whiteSpace=wrap;connectable=0;strokeColor=inherit;overflow=hidden;fillColor=none;top=0;left=0;bottom=0;right=0;pointerEvents=1;" vertex="1" parent="2kVBc_zqeof4KfWbexQ--49">
          <mxGeometry width="163" height="49" as="geometry">
            <mxRectangle width="163" height="49" as="alternateBounds" />
          </mxGeometry>
        </mxCell>
        <mxCell id="2kVBc_zqeof4KfWbexQ--51" value="Title: Dashboard" style="shape=partialRectangle;html=1;whiteSpace=wrap;connectable=0;strokeColor=inherit;overflow=hidden;fillColor=none;top=0;left=0;bottom=0;right=0;pointerEvents=1;" vertex="1" parent="2kVBc_zqeof4KfWbexQ--49">
          <mxGeometry x="163" width="270" height="49" as="geometry">
            <mxRectangle width="270" height="49" as="alternateBounds" />
          </mxGeometry>
        </mxCell>
        <mxCell id="2kVBc_zqeof4KfWbexQ--52" value="Priority: 1" style="shape=partialRectangle;html=1;whiteSpace=wrap;connectable=0;strokeColor=inherit;overflow=hidden;fillColor=none;top=0;left=0;bottom=0;right=0;pointerEvents=1;" vertex="1" parent="2kVBc_zqeof4KfWbexQ--49">
          <mxGeometry x="433" width="109" height="49" as="geometry">
            <mxRectangle width="109" height="49" as="alternateBounds" />
          </mxGeometry>
        </mxCell>
        <mxCell id="2kVBc_zqeof4KfWbexQ--53" value="Estimate:" style="shape=partialRectangle;html=1;whiteSpace=wrap;connectable=0;strokeColor=inherit;overflow=hidden;fillColor=none;top=0;left=0;bottom=0;right=0;pointerEvents=1;" vertex="1" parent="2kVBc_zqeof4KfWbexQ--49">
          <mxGeometry x="542" width="108" height="49" as="geometry">
            <mxRectangle width="108" height="49" as="alternateBounds" />
          </mxGeometry>
        </mxCell>
        <mxCell id="2kVBc_zqeof4KfWbexQ--59" value="" style="shape=table;startSize=0;container=1;collapsible=0;childLayout=tableLayout;" vertex="1" parent="2kVBc_zqeof4KfWbexQ--80">
          <mxGeometry y="48.61" width="650" height="231.39" as="geometry" />
        </mxCell>
        <mxCell id="2kVBc_zqeof4KfWbexQ--60" value="" style="shape=tableRow;horizontal=0;startSize=0;swimlaneHead=0;swimlaneBody=0;strokeColor=inherit;top=0;left=0;bottom=0;right=0;collapsible=0;dropTarget=0;fillColor=none;points=[[0,0.5],[1,0.5]];portConstraint=eastwest;" vertex="1" parent="2kVBc_zqeof4KfWbexQ--59">
          <mxGeometry width="650" height="37" as="geometry" />
        </mxCell>
        <mxCell id="2kVBc_zqeof4KfWbexQ--61" value="Story:&lt;br&gt;As a registered user, I want to access my dashboard so I can view my badges, streaks, and WBPs.&amp;nbsp;&lt;div&gt;&lt;br&gt;&lt;/div&gt;" style="shape=partialRectangle;html=1;whiteSpace=wrap;connectable=0;strokeColor=inherit;overflow=hidden;fillColor=none;top=0;left=0;bottom=0;right=0;pointerEvents=1;align=left;" vertex="1" parent="2kVBc_zqeof4KfWbexQ--60">
          <mxGeometry width="650" height="37" as="geometry">
            <mxRectangle width="650" height="37" as="alternateBounds" />
          </mxGeometry>
        </mxCell>
        <mxCell id="2kVBc_zqeof4KfWbexQ--62" value="" style="shape=tableRow;horizontal=0;startSize=0;swimlaneHead=0;swimlaneBody=0;strokeColor=inherit;top=0;left=0;bottom=0;right=0;collapsible=0;dropTarget=0;fillColor=none;points=[[0,0.5],[1,0.5]];portConstraint=eastwest;" vertex="1" parent="2kVBc_zqeof4KfWbexQ--59">
          <mxGeometry y="37" width="650" height="194" as="geometry" />
        </mxCell>
        <mxCell id="2kVBc_zqeof4KfWbexQ--63" value="&lt;div style=&quot;&quot;&gt;&lt;br&gt;&lt;/div&gt;" style="shape=partialRectangle;html=1;whiteSpace=wrap;connectable=0;strokeColor=inherit;overflow=hidden;fillColor=none;top=0;left=0;bottom=0;right=0;pointerEvents=1;align=left;" vertex="1" parent="2kVBc_zqeof4KfWbexQ--62">
          <mxGeometry width="650" height="194" as="geometry">
            <mxRectangle width="650" height="194" as="alternateBounds" />
          </mxGeometry>
        </mxCell>
        <mxCell id="2kVBc_zqeof4KfWbexQ--78" value="Acceptance criteria" style="text;html=1;align=left;verticalAlign=middle;whiteSpace=wrap;rounded=0;" vertex="1" parent="2kVBc_zqeof4KfWbexQ--80">
          <mxGeometry y="100" width="120" height="30" as="geometry" />
        </mxCell>
        <mxCell id="2kVBc_zqeof4KfWbexQ--79" value="&lt;p class=&quot;MsoListParagraph&quot;&gt;&lt;span lang=&quot;EN-US&quot;&gt;1. After the system validates the login credentials entered in the login page:&lt;br&gt;&lt;span style=&quot;white-space: pre;&quot;&gt;&#x9;&lt;/span&gt;a.&amp;nbsp; The user is logged into the homepage of the platform.&amp;nbsp;&lt;br&gt;&lt;span style=&quot;white-space: pre;&quot;&gt;&#x9;&lt;/span&gt;&amp;nbsp;&amp;nbsp;&lt;br&gt;2. Whenever the user clicks on the &#39;dashboard&#39; tab:&lt;br&gt;&lt;span style=&quot;white-space: pre;&quot;&gt;&#x9;&lt;/span&gt;a.&amp;nbsp; The platform displays the dashboard page.&amp;nbsp;&lt;br&gt;&lt;br&gt;Definition of Done&lt;br&gt;1. Dashboard is visible to the user&amp;nbsp;&lt;br&gt;2. Dashboard displays user&#39;s badges, streaks, and well-being points&amp;nbsp;&lt;br&gt;&lt;br&gt;&lt;/span&gt;&lt;/p&gt;&lt;p class=&quot;MsoListParagraph&quot;&gt;&lt;/p&gt;" style="text;html=1;align=left;verticalAlign=middle;whiteSpace=wrap;rounded=0;" vertex="1" parent="2kVBc_zqeof4KfWbexQ--80">
          <mxGeometry y="130" width="520" height="140" as="geometry" />
        </mxCell>
        <mxCell id="2kVBc_zqeof4KfWbexQ--82" value="" style="shape=table;startSize=0;container=1;collapsible=0;childLayout=tableLayout;" vertex="1" parent="1">
          <mxGeometry x="160" y="40" width="650" height="57.291666666666664" as="geometry" />
        </mxCell>
        <mxCell id="2kVBc_zqeof4KfWbexQ--83" value="" style="shape=tableRow;horizontal=0;startSize=0;swimlaneHead=0;swimlaneBody=0;strokeColor=inherit;top=0;left=0;bottom=0;right=0;collapsible=0;dropTarget=0;fillColor=none;points=[[0,0.5],[1,0.5]];portConstraint=eastwest;" vertex="1" parent="2kVBc_zqeof4KfWbexQ--82">
          <mxGeometry width="650" height="57" as="geometry" />
        </mxCell>
        <mxCell id="2kVBc_zqeof4KfWbexQ--84" value="ID:" style="shape=partialRectangle;html=1;whiteSpace=wrap;connectable=0;strokeColor=inherit;overflow=hidden;fillColor=none;top=0;left=0;bottom=0;right=0;pointerEvents=1;" vertex="1" parent="2kVBc_zqeof4KfWbexQ--83">
          <mxGeometry width="163" height="57" as="geometry">
            <mxRectangle width="163" height="57" as="alternateBounds" />
          </mxGeometry>
        </mxCell>
        <mxCell id="2kVBc_zqeof4KfWbexQ--85" value="Title: Earn virtual incentives" style="shape=partialRectangle;html=1;whiteSpace=wrap;connectable=0;strokeColor=inherit;overflow=hidden;fillColor=none;top=0;left=0;bottom=0;right=0;pointerEvents=1;" vertex="1" parent="2kVBc_zqeof4KfWbexQ--83">
          <mxGeometry x="163" width="270" height="57" as="geometry">
            <mxRectangle width="270" height="57" as="alternateBounds" />
          </mxGeometry>
        </mxCell>
        <mxCell id="2kVBc_zqeof4KfWbexQ--86" value="Priority: 1" style="shape=partialRectangle;html=1;whiteSpace=wrap;connectable=0;strokeColor=inherit;overflow=hidden;fillColor=none;top=0;left=0;bottom=0;right=0;pointerEvents=1;" vertex="1" parent="2kVBc_zqeof4KfWbexQ--83">
          <mxGeometry x="433" width="109" height="57" as="geometry">
            <mxRectangle width="109" height="57" as="alternateBounds" />
          </mxGeometry>
        </mxCell>
        <mxCell id="2kVBc_zqeof4KfWbexQ--87" value="Estimate:" style="shape=partialRectangle;html=1;whiteSpace=wrap;connectable=0;strokeColor=inherit;overflow=hidden;fillColor=none;top=0;left=0;bottom=0;right=0;pointerEvents=1;" vertex="1" parent="2kVBc_zqeof4KfWbexQ--83">
          <mxGeometry x="542" width="108" height="57" as="geometry">
            <mxRectangle width="108" height="57" as="alternateBounds" />
          </mxGeometry>
        </mxCell>
        <mxCell id="2kVBc_zqeof4KfWbexQ--88" value="" style="shape=table;startSize=0;container=1;collapsible=0;childLayout=tableLayout;" vertex="1" parent="1">
          <mxGeometry x="160" y="97.29" width="650" height="302.71" as="geometry" />
        </mxCell>
        <mxCell id="2kVBc_zqeof4KfWbexQ--89" value="" style="shape=tableRow;horizontal=0;startSize=0;swimlaneHead=0;swimlaneBody=0;strokeColor=inherit;top=0;left=0;bottom=0;right=0;collapsible=0;dropTarget=0;fillColor=none;points=[[0,0.5],[1,0.5]];portConstraint=eastwest;" vertex="1" parent="2kVBc_zqeof4KfWbexQ--88">
          <mxGeometry width="650" height="49" as="geometry" />
        </mxCell>
        <mxCell id="2kVBc_zqeof4KfWbexQ--90" value="Story:&lt;br&gt;As a registered user, I want to acquire badges, streaks and WBPs&lt;div&gt;&lt;br&gt;&lt;/div&gt;" style="shape=partialRectangle;html=1;whiteSpace=wrap;connectable=0;strokeColor=inherit;overflow=hidden;fillColor=none;top=0;left=0;bottom=0;right=0;pointerEvents=1;align=left;" vertex="1" parent="2kVBc_zqeof4KfWbexQ--89">
          <mxGeometry width="650" height="49" as="geometry">
            <mxRectangle width="650" height="49" as="alternateBounds" />
          </mxGeometry>
        </mxCell>
        <mxCell id="2kVBc_zqeof4KfWbexQ--91" value="" style="shape=tableRow;horizontal=0;startSize=0;swimlaneHead=0;swimlaneBody=0;strokeColor=inherit;top=0;left=0;bottom=0;right=0;collapsible=0;dropTarget=0;fillColor=none;points=[[0,0.5],[1,0.5]];portConstraint=eastwest;" vertex="1" parent="2kVBc_zqeof4KfWbexQ--88">
          <mxGeometry y="49" width="650" height="254" as="geometry" />
        </mxCell>
        <mxCell id="2kVBc_zqeof4KfWbexQ--92" value="&lt;div style=&quot;&quot;&gt;&lt;br&gt;&lt;/div&gt;" style="shape=partialRectangle;html=1;whiteSpace=wrap;connectable=0;strokeColor=inherit;overflow=hidden;fillColor=none;top=0;left=0;bottom=0;right=0;pointerEvents=1;align=left;" vertex="1" parent="2kVBc_zqeof4KfWbexQ--91">
          <mxGeometry width="650" height="254" as="geometry">
            <mxRectangle width="650" height="254" as="alternateBounds" />
          </mxGeometry>
        </mxCell>
        <mxCell id="2kVBc_zqeof4KfWbexQ--93" value="Acceptance criteria" style="text;html=1;align=left;verticalAlign=middle;whiteSpace=wrap;rounded=0;" vertex="1" parent="1">
          <mxGeometry x="160" y="139.99714285714288" width="120" height="35.35714285714286" as="geometry" />
        </mxCell>
        <mxCell id="2kVBc_zqeof4KfWbexQ--94" value="&lt;p class=&quot;MsoListParagraph&quot;&gt;&lt;span lang=&quot;EN-US&quot;&gt;1. Whenever the user interacts with the platform&#39;s features:&lt;br&gt;&lt;span style=&quot;white-space: pre;&quot;&gt;&#x9;&lt;/span&gt;a.&amp;nbsp; System reads the event and emits it to its associated&amp;nbsp; gaming modules:&lt;br&gt;&lt;span style=&quot;white-space: pre;&quot;&gt;&#x9;&amp;nbsp;&lt;/span&gt;&amp;nbsp; &amp;nbsp; Badge, Streak, WBPS&amp;nbsp;&lt;/span&gt;&lt;/p&gt;&lt;p class=&quot;MsoListParagraph&quot;&gt;&lt;span lang=&quot;EN-US&quot;&gt;&lt;span style=&quot;white-space: pre;&quot;&gt;&#x9;&lt;/span&gt;b. Modules read events, updating the event count and compares it to its pre-requisites&amp;nbsp;&lt;br&gt;&lt;span style=&quot;white-space: pre;&quot;&gt;&#x9;&lt;/span&gt;&lt;br&gt;&lt;span style=&quot;white-space: pre;&quot;&gt;&#x9;&lt;/span&gt;c. If pre-requisites are met, the modules awards badges, streaks and/or WBP&lt;/span&gt;&lt;/p&gt;&lt;p class=&quot;MsoListParagraph&quot;&gt;&lt;span lang=&quot;EN-US&quot;&gt;&lt;span style=&quot;white-space: pre;&quot;&gt;&#x9;&lt;/span&gt;d. Module updates the virtual incentives acquired on the user dashboard&lt;br&gt;&lt;/span&gt;&lt;/p&gt;&lt;p class=&quot;MsoListParagraph&quot;&gt;&lt;span lang=&quot;EN-US&quot;&gt;&lt;span style=&quot;white-space: pre;&quot;&gt;&#x9;&lt;/span&gt;d. Notification is sent to the user, alerting that he/she had earned virtual incentives&amp;nbsp;&lt;br&gt;&lt;br&gt;Definition of Done&lt;br&gt;1. Virtual incentive awarded to user after fulfilling its associated pre-requisites.&lt;br&gt;2. User is alerted of this achievement, and can view their updated dashboard&amp;nbsp;&lt;br&gt;&lt;br&gt;&lt;/span&gt;&lt;/p&gt;&lt;p class=&quot;MsoListParagraph&quot;&gt;&lt;/p&gt;" style="text;html=1;align=left;verticalAlign=middle;whiteSpace=wrap;rounded=0;" vertex="1" parent="1">
          <mxGeometry x="160" y="170" width="520" height="236.79" as="geometry" />
        </mxCell>
      </root>
    </mxGraphModel>
  </diagram>
</mxfile>
